<mxfile host="app.diagrams.net" modified="2023-09-20T16:59:20.024Z" agent="Mozilla/5.0 (Windows NT 10.0; Win64; x64) AppleWebKit/537.36 (KHTML, like Gecko) Chrome/117.0.0.0 Safari/537.36" etag="bSs049CT7lCo4BfrhqRR" version="21.7.5" type="device">
  <diagram id="AxDjYkhR9DglB62pDZE8" name="Page-1">
    <mxGraphModel dx="1050" dy="1735" grid="1" gridSize="10" guides="1" tooltips="1" connect="1" arrows="1" fold="1" page="1" pageScale="1" pageWidth="850" pageHeight="1100" math="0" shadow="0">
      <root>
        <mxCell id="0" />
        <mxCell id="1" parent="0" />
        <mxCell id="sZx4sZHFijIDFqTBi8BH-1" value="START" style="ellipse;whiteSpace=wrap;html=1;" parent="1" vertex="1">
          <mxGeometry x="358.5" y="-980" width="120" height="80" as="geometry" />
        </mxCell>
        <mxCell id="sZx4sZHFijIDFqTBi8BH-2" value="PRINT OUTPUT&lt;br&gt;&quot;Hello World!&quot;" style="shape=parallelogram;perimeter=parallelogramPerimeter;whiteSpace=wrap;html=1;fixedSize=1;" parent="1" vertex="1">
          <mxGeometry x="331" y="-770" width="175" height="60" as="geometry" />
        </mxCell>
        <mxCell id="sZx4sZHFijIDFqTBi8BH-3" value="END" style="ellipse;whiteSpace=wrap;html=1;" parent="1" vertex="1">
          <mxGeometry x="358.5" y="-670" width="120" height="80" as="geometry" />
        </mxCell>
        <mxCell id="sZx4sZHFijIDFqTBi8BH-4" value="" style="endArrow=classic;html=1;rounded=0;exitX=0.5;exitY=1;exitDx=0;exitDy=0;" parent="1" source="sZx4sZHFijIDFqTBi8BH-2" target="sZx4sZHFijIDFqTBi8BH-3" edge="1">
          <mxGeometry width="50" height="50" relative="1" as="geometry">
            <mxPoint x="410" y="-650" as="sourcePoint" />
            <mxPoint x="460" y="-700" as="targetPoint" />
          </mxGeometry>
        </mxCell>
        <mxCell id="sZx4sZHFijIDFqTBi8BH-5" value="" style="endArrow=classic;html=1;rounded=0;exitX=0.5;exitY=1;exitDx=0;exitDy=0;entryX=0.5;entryY=0;entryDx=0;entryDy=0;" parent="1" target="sZx4sZHFijIDFqTBi8BH-2" edge="1">
          <mxGeometry width="50" height="50" relative="1" as="geometry">
            <mxPoint x="418.5" y="-810" as="sourcePoint" />
            <mxPoint x="230.00000000000023" y="-840" as="targetPoint" />
          </mxGeometry>
        </mxCell>
        <mxCell id="sZx4sZHFijIDFqTBi8BH-6" value="INPUT&lt;br&gt;&quot;Hello World!&quot;" style="shape=parallelogram;perimeter=parallelogramPerimeter;whiteSpace=wrap;html=1;fixedSize=1;" parent="1" vertex="1">
          <mxGeometry x="331" y="-860" width="175" height="60" as="geometry" />
        </mxCell>
        <mxCell id="sZx4sZHFijIDFqTBi8BH-7" value="" style="endArrow=classic;html=1;rounded=0;exitX=0.5;exitY=1;exitDx=0;exitDy=0;entryX=0.5;entryY=0;entryDx=0;entryDy=0;" parent="1" source="sZx4sZHFijIDFqTBi8BH-1" target="sZx4sZHFijIDFqTBi8BH-6" edge="1">
          <mxGeometry width="50" height="50" relative="1" as="geometry">
            <mxPoint x="429" y="-790" as="sourcePoint" />
            <mxPoint x="429" y="-730" as="targetPoint" />
          </mxGeometry>
        </mxCell>
      </root>
    </mxGraphModel>
  </diagram>
</mxfile>
